<?xml version="1.0" encoding="UTF-8"?>
<svg xmlns="http://www.w3.org/2000/svg" version="1.1" viewBox="0 0 40.59 40.02">
  <g>
    <g id="Capa_1">
      <g>
        <path style={{fillRule:evenodd}} class="  fill-[--second]" d="M28.42,14.28c-6.54-.39-5.32,2.22-5.38,6.39,1.37,0,4.34,0,5.16,0-.33,2.11-.76,4.89-.83,5.35-1.55,0-2.98.01-4.32.02.01,4.32.05,8.68-.01,13-.6.07-2.37.12-2.72.12-1.02-.03-2.42-.08-3.16-.13,0-2.32.09-10.85.08-13.01-1.16,0-3.23.01-4.72,0,0-1.09-.02-3.47,0-5.36.85-.02,3.75,0,4.73-.03,0-1.21,0-2.38-.01-3.92-.01-5.42,3.53-8.53,11.19-6.99,0,1.28,0,3.61,0,4.56h0Z"/>
        <path style={{strokeMiterlimit:10}} class="fill-none stroke-[--second]" d="M.95,19.98c.09,10.68,8.82,19.38,19.54,19.26,10.56.04,19.65-9.49,19.04-20.11C39.06,9.02,30.7.8,20.53.64,10.04.49,1.1,8.83.95,19.98h0Z"/>
      </g>
    </g>
  </g>
</svg>