<?xml version="1.0" encoding="UTF-8"?>
<svg id="uuid-bed61c29-3b26-4533-8a0d-58186ef7f0e2" data-name="Capa 2" xmlns="http://www.w3.org/2000/svg" viewBox="0 0 38.28 18.77">
  <g id="uuid-3b28b246-2fb8-4fe4-b170-7d2cd5ce4284" data-name="Capa 1">
    <g>
      <g>
        <path d="m12.6,9.96c-.75,0-1.36-.23-1.85-.69s-.73-1.06-.73-1.81h.61c.03.62.22,1.1.58,1.44s.82.5,1.4.5c.61,0,1.08-.16,1.4-.49s.49-.75.49-1.29-.16-.97-.49-1.28c-.33-.31-.78-.46-1.37-.46h-.59v-.52h.58c.49,0,.87-.14,1.16-.42.29-.28.43-.65.43-1.11,0-.49-.15-.88-.44-1.16-.29-.28-.68-.42-1.16-.42-.55,0-.99.18-1.3.55-.31.37-.47.83-.47,1.39h-.6c0-.72.22-1.31.65-1.77.42-.45,1.01-.68,1.74-.68.62,0,1.14.19,1.55.57.41.38.62.88.62,1.5,0,.86-.37,1.45-1.11,1.76v.04c.93.35,1.4,1.04,1.4,2.07,0,.7-.23,1.26-.68,1.68s-1.07.62-1.84.62Z" style="fill: #282828; stroke-width: 0px;"/>
        <path d="m18.88,9.96c-.68,0-1.26-.22-1.73-.65-.69-.61-1.03-1.78-1.03-3.51,0-1.19.25-2.17.75-2.93.5-.76,1.21-1.14,2.11-1.14.62,0,1.11.18,1.48.54s.59.83.65,1.42h-.6c-.04-.42-.19-.77-.46-1.04-.27-.27-.62-.4-1.05-.4-.76,0-1.34.35-1.72,1.06s-.57,1.66-.55,2.87h.02c.47-.94,1.19-1.41,2.15-1.41.72,0,1.31.23,1.77.7s.68,1.08.68,1.83-.23,1.41-.68,1.91-1.05.75-1.79.75Zm-.02-.51c.56,0,1.02-.2,1.36-.6s.51-.91.51-1.54-.17-1.11-.5-1.48c-.33-.37-.78-.55-1.35-.55s-1.02.2-1.39.59-.56.89-.56,1.49c0,.63.18,1.14.53,1.52.35.38.82.57,1.4.57Z" style="fill: #282828; stroke-width: 0px;"/>
        <path d="m25.18,9.96c-.9,0-1.6-.37-2.09-1.1-.49-.73-.74-1.74-.74-3.02s.25-2.28.76-3.02c.51-.73,1.2-1.1,2.08-1.1s1.56.36,2.06,1.09c.5.73.76,1.74.76,3.02s-.24,2.28-.73,3.02c-.49.73-1.19,1.1-2.1,1.1Zm.01-.52c.71,0,1.25-.31,1.64-.94s.57-1.51.57-2.65-.19-1.99-.58-2.63c-.39-.65-.93-.97-1.62-.97s-1.26.32-1.65.95c-.39.63-.58,1.52-.58,2.65s.2,2,.59,2.63c.39.64.94.96,1.64.96Z" style="fill: #282828; stroke-width: 0px;"/>
      </g>
      <g>
        <path d="m31.18,5.86c-.31-.08-.63.12-.71.43-.08.31.12.63.43.71,4.57,1.11,6.21,2.57,6.21,3.56,0,2.19-6.88,4.62-16.87,4.79l1.76-1.18c.27-.18.34-.55.16-.81-.18-.27-.54-.34-.81-.16l-3.35,2.25c-.16.11-.26.29-.26.49s.1.38.26.49l3.35,2.25c.1.07.21.1.33.1.19,0,.37-.09.49-.26.18-.27.11-.63-.16-.81l-1.76-1.18c8.94-.16,18.04-2.23,18.04-5.96,0-1.92-2.52-3.59-7.1-4.7Z" style="fill: #282828; stroke-width: 0px;"/>
        <path d="m15.41,16.43c.31,0,.57-.24.58-.55.02-.32-.23-.6-.55-.62-8.94-.53-14.28-2.8-14.28-4.7,0-.99,1.63-2.45,6.21-3.56.31-.08.51-.39.43-.71-.08-.31-.4-.51-.71-.43C2.52,6.97,0,8.64,0,10.56c0,3.42,7.72,5.41,15.38,5.87.01,0,.02,0,.03,0Z" style="fill: #282828; stroke-width: 0px;"/>
      </g>
      <circle cx="29.53" cy="1.24" r=".99" style="fill: none; stroke: #282828; stroke-miterlimit: 10; stroke-width: .5px;"/>
    </g>
  </g>
</svg>