<?xml version="1.0" encoding="UTF-8"?>
<svg id="uuid-653a4dc4-7347-4dcf-a809-413ddaf809c7" data-name="Capa_2" xmlns="http://www.w3.org/2000/svg" viewBox="0 0 37.14 39.19">
  <g id="uuid-61ebe4c2-d80b-4c6b-aa8b-e6df30c94547" data-name="Capa_1">
    <path d="M31.5,26.13c-2.58,4.69-7.83,7.7-13.69,6.95s-11.03-5.79-11.72-11.92c-.92-8.19,5.5-15.16,13.51-15.16,3.7,0,7.05,1.49,9.5,3.89,1.01.99,2.55,1.17,3.74.4h0c1.63-1.05,1.84-3.33.46-4.69C29.75,2.14,24.91,0,19.56,0,9.28.02.59,8.24.03,18.51c-.61,11.3,8.4,20.68,19.57,20.68,7.4,0,13.85-4.12,17.18-10.19.95-1.73-.04-3.89-1.96-4.34h-.01c-1.31-.31-2.66.29-3.3,1.46Z" style="fill: #fff5ba;"/>
  </g>
</svg>