<?xml version="1.0" encoding="UTF-8"?>
<svg xmlns="http://www.w3.org/2000/svg" version="1.1" viewBox="0 0 87.83 87.35">
  <defs>
    <style>
      .cls-1 {
        fill: #fff6c2;
      }

      .cls-2 {
        opacity: .7;
      }
    </style>
  </defs>
  <!-- Generator: Adobe Illustrator 28.6.0, SVG Export Plug-In . SVG Version: 1.2.0 Build 709)  -->
  <g>
    <g id="Capa_1">
      <g class="cls-2">
        <path class="cls-1" d="M29.67,26.75c0-3.66,2.59-5.16,5.76-3.33l29.77,17.19c3.17,1.83,3.17,4.82,0,6.65l-29.77,17.19c-3.17,1.83-5.76.33-5.76-3.33V26.75Z"/>
        <path class="cls-1" d="M43.99,87.01C20.24,87.01.92,67.68.92,43.93S20.24.86,43.99.86s43.07,19.32,43.07,43.07-19.32,43.07-43.07,43.07ZM43.99,7.51C23.91,7.51,7.57,23.85,7.57,43.93s16.34,36.42,36.42,36.42,36.42-16.34,36.42-36.42S64.07,7.51,43.99,7.51Z"/>
      </g>
    </g>
  </g>
</svg>