<?xml version="1.0" encoding="UTF-8"?>
<svg xmlns="http://www.w3.org/2000/svg" version="1.1" viewBox="0 0 32.97 38.39">
  <defs>
    <style>
      .cls-1 {
        fill: #fff6c2;
        stroke: #fff6c2;
        stroke-miterlimit: 10;
        stroke-width: .25px;
      }
    </style>
  </defs>
  <!-- Generator: Adobe Illustrator 28.7.1, SVG Export Plug-In . SVG Version: 1.2.0 Build 142)  -->
  <g>
    <g id="Capa_1">
      <g>
        <path class="cls-1" d="M24.26,5.6c1.49,0,2.69-1.21,2.69-2.69S25.75.22,24.26.22s-2.69,1.21-2.69,2.69,1.21,2.69,2.69,2.69"/>
        <path class="cls-1" d="M23.29,21.46c-.1-.07-.2-.14-.3-.2h0,0s-.07-.04-.11-.06l-1.54-.87-6.35-3.66h0s-.02,0-.02,0l-9.94,17.21-.46.78c-.06.09-.12.18-.17.28h0s0,0,0,0c-.01.03-.03.06-.04.09h0s0,.01,0,.01c-.12.28-.19.6-.19.93,0,1.22.92,2.21,2.06,2.21.67,0,1.27-.35,1.65-.89l.57-.98,2.64-4.57,10.84-2.9c.13-.03.26-.06.38-.1l.12-.03h0c1.49-.56,2.57-2.08,2.57-3.87,0-.79-.21-1.53-.57-2.16-.28-.49-.66-.91-1.1-1.23M17.48,25.72l-3.46.93,2.47-4.29,1.26.73,3.02,1.74-3.3.89Z"/>
        <path class="cls-1" d="M5.25,19.67l.33.94.93-.16.25-.04,4.55-.77-1.95-1.14,3.73-6.45,5.26-1.11h0c.86-.23,1.49-1.06,1.49-2.04,0-1.15-.87-2.09-1.94-2.09-.17,0-.33.02-.49.07l-6.99,1.48h-.01s-4.65,8.05-4.65,8.05l-2.14-1.25,1.54,4.3.08.24Z"/>
        <polygon class="cls-1" points="3.41 15.24 .48 20.22 4.92 19.47 3.41 15.24"/>
        <polygon class="cls-1" points="8.38 24.92 11.33 19.88 6.85 20.64 8.38 24.92"/>
        <polygon class="cls-1" points="6.6 20.68 5.67 20.84 5.42 20.88 5.34 20.64 5 19.71 .48 20.47 8.13 24.95 6.6 20.68"/>
        <path class="cls-1" d="M30.8,6.34c-.73,0-1.38.4-1.71,1-.06.1-.11.21-.15.32h0s-.19.43-.19.43l-1.43,3.21s0,0,0,0h-4.24s0,0,0,0l-2.12,3.81s0,0,0,0h8.94s0,0,0,0v-.03s0,0,0,0c0,0,0,0,0,0l2.26-5.06.51-1.15s0,0,0,0c.06-.18.08-.37.08-.57,0-1.09-.88-1.96-1.97-1.96"/>
      </g>
    </g>
  </g>
</svg>