<?xml version="1.0" encoding="UTF-8"?>
<svg xmlns="http://www.w3.org/2000/svg" version="1.1" viewBox="0 0 240.81 21.72">
  <defs>
    <style>
      .cls-1 {
        fill: #fff6c2;
        stroke: #fff6c2;
        stroke-miterlimit: 10;
        stroke-width: .25px;
      }
    </style>
  </defs>
  <!-- Generator: Adobe Illustrator 28.6.0, SVG Export Plug-In . SVG Version: 1.2.0 Build 709)  -->
  <g>
    <g id="Capa_1">
      <g>
        <g>
          <path class="cls-1" d="M132.22,1.48c.12.16.22.34.28.53.07.19.11.41.13.65.02.25.03.54.03.88v6.58c.19-.29.51-.48.88-.48.34,0,.64.16.83.41V1.9h3.12c.49,0,.9,0,1.22.01.32,0,.59.04.8.1s.38.14.51.25c.13.11.27.26.43.44-.02-.17-.05-.36-.1-.55-.05-.2-.12-.39-.21-.57-.09-.18-.21-.33-.36-.44-.14-.11-.32-.17-.53-.17-.17,0-.52,0-1.05.03-.53.02-1.11.04-1.73.06-.63.02-1.22.04-1.78.06-.56.02-.95.03-1.18.03-.17,0-.36,0-.57-.01-.21,0-.41-.02-.6-.04-.21-.02-.42-.04-.62-.06.21.15.37.31.5.47Z"/>
          <path class="cls-1" d="M140.5,10.19c0-.15,0-.29.03-.43,0-.15,0-.31.03-.48-.09.19-.23.36-.4.51-.15.13-.35.25-.61.34-.26.1-.57.14-.95.14h-4.1c.05.13.08.27.08.41,0,.14-.03.26-.08.38h4.12c.38,0,.7.05.95.14.26.09.46.2.61.31.17.13.3.28.4.45-.02-.15-.04-.31-.06-.48-.02-.15-.03-.3-.03-.45v-.85Z"/>
          <path class="cls-1" d="M142.03,19.92c-.28.14-.6.25-.94.33-.34.08-.7.12-1.07.14-.37.02-.73.03-1.09.03h-1.34c-.51,0-1.01,0-1.51-.03-.57-.02-1.15-.04-1.73-.06v-9.01c-.19.25-.49.41-.83.41-.37,0-.69-.19-.88-.48v7.15c0,.42-.02.77-.07,1.05-.05.28-.12.53-.21.72-.09.2-.23.37-.4.53-.17.15-.37.29-.6.43.3-.02.6-.04.88-.06.25-.02.49-.03.72-.04.24,0,.41-.01.53-.01.21,0,.62,0,1.24.03.62.02,1.31.04,2.09.07.78.03,1.58.05,2.4.07.82.02,1.57.03,2.23.03.21,0,.39-.06.54-.18.15-.12.27-.28.37-.47.09-.19.17-.39.23-.61.06-.22.1-.42.14-.61-.19.25-.43.44-.71.58Z"/>
        </g>
        <circle class="cls-1" cx="138.19" cy="15.29" r="1.04"/>
        <g>
          <path class="cls-1" d="M143.82,1.88c.13.39.2.94.2,1.66v4.09c.19-.28.51-.47.87-.47.34,0,.65.17.84.42V3.54c0-.72.07-1.28.21-1.69.14-.41.38-.69.72-.84-.25.02-.47.04-.68.06-.19.02-.39.03-.6.04-.21,0-.4.01-.57.01s-.36,0-.55-.01c-.2,0-.39-.02-.58-.04-.21-.02-.43-.04-.65-.06.4.19.66.48.8.87Z"/>
          <path class="cls-1" d="M144.89,12.51c-.36,0-.68-.19-.87-.47v2.22c.19-.28.51-.47.87-.47.34,0,.65.17.84.42v-2.14c-.19.26-.49.42-.84.42Z"/>
          <path class="cls-1" d="M144.89,9.26c-.36,0-.68-.19-.87-.47v2.1c.19-.28.51-.47.87-.47.34,0,.65.17.84.42v-2.01c-.19.26-.49.42-.84.42Z"/>
          <path class="cls-1" d="M153.96,19.52c-.11.1-.25.2-.4.3-.27.15-.58.27-.95.34-.37.08-.76.13-1.16.17-.41.04-.81.06-1.21.07-.4,0-.75.01-1.05.01-.38,0-.77,0-1.18-.01-.41,0-.78-.03-1.12-.07-.4-.04-.79-.08-1.16-.11v-4.75c-.19.26-.49.42-.84.42-.36,0-.68-.19-.87-.47v3.46c0,.59-.12,1.04-.35,1.36-.24.32-.54.62-.92.88.3-.02.6-.04.88-.06.25-.02.49-.03.72-.04.24,0,.41-.01.53-.01.63,0,1.28.01,1.97.04.69.03,1.39.06,2.09.09s1.38.05,2.03.07c.65.02,1.26.03,1.83.03.28,0,.49-.07.61-.2.12-.13.26-.33.41-.6.08-.17.15-.34.23-.5.08-.16.13-.31.17-.44l.14-.43c-.15.19-.28.34-.4.44Z"/>
        </g>
        <g>
          <path class="cls-1" d="M182.03,1.88c.13.39.2.94.2,1.66v4.14c.18-.31.51-.52.9-.52.33,0,.62.15.81.39V3.54c0-.72.07-1.28.21-1.69.14-.41.38-.69.72-.84-.25.02-.47.04-.68.06-.19.02-.39.03-.6.04-.21,0-.4.01-.57.01s-.36,0-.55-.01c-.2,0-.39-.02-.58-.04-.21-.02-.43-.04-.65-.06.4.19.66.48.8.87Z"/>
          <path class="cls-1" d="M183.12,12.51c-.38,0-.71-.21-.9-.52v2.32c.18-.31.51-.52.9-.52.33,0,.62.15.81.39v-2.07c-.19.24-.48.39-.81.39Z"/>
          <path class="cls-1" d="M192.17,19.52c-.11.1-.25.2-.4.3-.27.15-.58.27-.95.34-.37.08-.76.13-1.16.17-.41.04-.81.06-1.21.07-.4,0-.75.01-1.05.01-.38,0-.77,0-1.18-.01-.41,0-.78-.03-1.12-.07-.4-.04-.79-.08-1.16-.11v-4.72c-.19.24-.48.39-.81.39-.38,0-.71-.21-.9-.52v3.51c0,.59-.12,1.04-.35,1.36-.24.32-.54.62-.92.88.3-.02.6-.04.88-.06.25-.02.49-.03.72-.04.24,0,.41-.01.53-.01.63,0,1.28.01,1.97.04.69.03,1.39.06,2.09.09s1.38.05,2.03.07c.65.02,1.26.03,1.83.03.28,0,.49-.07.61-.2.12-.13.26-.33.41-.6.08-.17.15-.34.23-.5.08-.16.13-.31.17-.44l.14-.43c-.15.19-.28.34-.4.44Z"/>
          <path class="cls-1" d="M183.12,9.26c-.38,0-.71-.21-.9-.52v2.2c.18-.31.51-.52.9-.52.33,0,.62.15.81.39v-1.95c-.19.24-.48.39-.81.39Z"/>
        </g>
        <path class="cls-1" d="M26.93,20.62c-.25-.17-.47-.35-.67-.54-.2-.19-.38-.4-.54-.64-.16-.24-.32-.52-.47-.84L16.59.42l-2.32,4.82s.06,0,.09,0c.39,0,.72.23.88.56l1.08-2.24,3.37,7.33c-.28-.11-.58-.22-.91-.29-1.96-.45-4.18.07-6.61,1.55l2.4-4.97c-.07.02-.14.03-.22.03-.34,0-.64-.18-.82-.44l-3.08,6.39c-1.66.82-3.23,1.04-4.7.66,0,0-.14-.04-.38-.12-.24-.08-.46-.17-.68-.27-.98-.44-2.49-1.31-3.99-2.93.02.04.19.35.49.79h-.03c.06.14,1.43,3.27,4.6,4.44,1.03.38,2.12.5,3.27.37l-1.22,2.54c-.15.34-.31.63-.47.87-.16.24-.33.45-.51.64-.18.19-.38.36-.61.53-.23.16-.48.33-.77.5.21-.02.43-.04.65-.06.21-.02.43-.03.67-.04.24,0,.47-.01.7-.01.19,0,.39,0,.61.01.22,0,.43.02.64.04.23.02.46.04.71.06-.15-.15-.27-.29-.37-.43-.09-.11-.18-.24-.26-.37-.08-.13-.11-.26-.11-.37,0-.21.03-.44.1-.7.07-.26.15-.49.24-.7l1.34-2.76c.75-.2,1.52-.5,2.32-.9,4.64-2.33,7.36-1.32,8.76-.19l.06.13h-.03l.38.82h.02l1.31,2.9c.15.36.25.64.28.85.04.21.06.44.06.68,0,.15-.03.29-.1.41-.07.12-.14.23-.21.33-.08.11-.17.21-.28.28.25-.02.49-.04.74-.06.21-.02.44-.03.68-.04.25,0,.47-.01.68-.01.3,0,.62,0,.94.01.32,0,.62.02.88.04.32.02.63.04.94.06-.34-.17-.63-.34-.88-.51ZM12.4,14.29c-2.35,1.18-4.49,1.43-6.37.75-.8-.29-1.48-.73-2.04-1.22.48.27,1.01.5,1.59.65.53.14,1.07.21,1.62.21,1.55,0,3.18-.55,4.87-1.65,2.45-1.6,4.65-2.19,6.55-1.76.61.14,1.13.38,1.55.64l.77,1.68c-1.72-.92-4.47-1.34-8.55.71Z"/>
        <path class="cls-1" d="M239.18,20.62c-.25-.17-.47-.35-.67-.54-.2-.19-.38-.4-.54-.64-.16-.24-.32-.52-.47-.84L228.84.42l-2.32,4.82s.05,0,.08,0c.32,0,.6.16.78.4l1.09-2.31,5.31,11.53h-10.74l3.61-7.67s-.03,0-.05,0c-.34,0-.64-.17-.81-.43l-5.7,11.84c-.15.34-.31.63-.47.87-.16.24-.33.45-.51.64-.18.19-.38.36-.61.53-.23.16-.48.33-.77.5.21-.02.43-.04.65-.06.21-.02.43-.03.67-.04.24,0,.47-.01.7-.01.19,0,.39,0,.61.01.22,0,.43.02.64.04.23.02.46.04.71.06-.15-.15-.27-.29-.37-.43-.09-.11-.18-.24-.26-.37-.08-.13-.11-.26-.11-.37,0-.21.03-.44.1-.7.07-.26.15-.49.24-.7l1.36-2.9h11.48l1.31,2.9c.15.36.25.64.28.85.04.21.06.44.06.68,0,.15-.03.29-.1.41-.07.12-.14.23-.21.33-.08.11-.17.21-.28.28.25-.02.49-.04.74-.06.21-.02.44-.03.68-.04.25,0,.47-.01.68-.01.3,0,.62,0,.94.01.32,0,.62.02.88.04.32.02.63.04.94.06-.34-.17-.63-.34-.88-.51Z"/>
        <path class="cls-1" d="M180.52,20.6c-.25-.17-.47-.35-.67-.54-.2-.19-.38-.4-.54-.64-.16-.24-.32-.52-.47-.84L170.18.4l-2.32,4.82s.05,0,.08,0c.32,0,.6.16.78.4l1.09-2.31,5.31,11.53h-10.74l3.61-7.67s-.03,0-.05,0c-.34,0-.64-.17-.81-.43l-5.7,11.84c-.15.34-.31.63-.47.87-.16.24-.33.45-.51.64-.18.19-.38.36-.61.53-.23.16-.48.33-.77.5.21-.02.43-.04.65-.06.21-.02.43-.03.67-.04.24,0,.47-.01.7-.01.19,0,.39,0,.61.01.22,0,.43.02.64.04.23.02.46.04.71.06-.15-.15-.27-.29-.37-.43-.09-.11-.18-.24-.26-.37-.08-.13-.11-.26-.11-.37,0-.21.03-.44.1-.7.07-.26.15-.49.24-.7l1.36-2.9h11.48l1.31,2.9c.15.36.25.64.28.85.04.21.06.44.06.68,0,.15-.03.29-.1.41-.07.12-.14.23-.21.33-.08.11-.17.21-.28.28.25-.02.49-.04.74-.06.21-.02.44-.03.68-.04.25,0,.47-.01.68-.01.3,0,.62,0,.94.01.32,0,.62.02.88.04.32.02.63.04.94.06-.34-.17-.63-.34-.88-.51Z"/>
        <g>
          <path class="cls-1" d="M29.4,20.08c0-.19.02-.47.06-.83-.17.16-.4.25-.65.25s-.48-.1-.66-.26c0,.02-.01.05-.02.07-.09.36-.18.64-.27.85-.09.21-.21.38-.35.51-.14.13-.33.28-.55.45.25-.02.47-.04.68-.06.19-.02.37-.03.55-.04.18,0,.32-.01.41-.01.17,0,.35,0,.55.01.2,0,.38.02.55.04.21.02.41.04.6.06-.27-.19-.48-.36-.65-.51-.17-.15-.26-.33-.26-.54Z"/>
          <path class="cls-1" d="M31.13,7.22c-.24,0-.45-.09-.62-.23l-2.03,10.61c.1-.04.21-.06.32-.06.34,0,.64.18.82.45.06-.38.12-.79.2-1.24.13-.78.28-1.61.44-2.51.16-.9.33-1.79.5-2.68.26-1.4.56-2.9.87-4.47-.15.09-.32.14-.5.14Z"/>
          <path class="cls-1" d="M52.21,20.35c-.17-.24-.31-.49-.43-.75-.11-.27-.21-.55-.28-.85-.08-.3-.14-.65-.2-1.05l-1.7-13.81c-.02-.11-.03-.23-.03-.34-.02-.09-.03-.2-.03-.33v-.41c0-.26.02-.47.06-.61.04-.14.11-.27.21-.38.1-.11.25-.22.44-.33.19-.1.44-.26.77-.47-.3.02-.59.04-.85.06-.23.02-.46.03-.7.04-.24,0-.42.01-.55.01-.15,0-.32,0-.51-.01-.19,0-.38-.02-.57-.04-.21-.02-.43-.04-.65-.06.09.11.18.23.26.34.08.09.14.21.2.34.06.13.09.27.09.4,0,.17-.05.39-.14.67-.09.27-.2.54-.31.81-.13.3-.28.62-.45.94l-6.56,13.52-6.56-14.18c-.23-.49-.41-.95-.54-1.38-.13-.43-.2-.91-.2-1.46-.17.02-.34.04-.51.06-.15.02-.3.03-.45.04-.15,0-.3.01-.45.01-.38,0-.74,0-1.09-.03-.35-.02-.66-.05-.92-.09.13.09.3.22.5.38.2.16.39.34.57.53.18.19.33.37.45.55.12.18.18.34.18.47v.37c-.04.19-.08.38-.11.57-.04.15-.07.31-.1.48s-.05.31-.07.43l-.1.53c.1-.03.19-.05.3-.05.32,0,.61.16.79.4.07-.34.14-.67.21-1.02l7.78,16.76,7.95-16.65c.36,2.67.69,5.08.99,7.22.13.91.26,1.81.38,2.7.12.89.23,1.69.33,2.4.09.71.17,1.3.23,1.76.06.46.09.72.09.78,0,.19-.03.37-.1.54-.07.17-.15.33-.24.48-.09.17-.21.33-.34.48.23-.02.45-.04.68-.06.19-.02.39-.03.61-.04.22,0,.41-.01.58-.01.19,0,.39,0,.6.01.21,0,.4.02.57.04.21.02.41.04.6.06-.25-.28-.45-.54-.63-.78Z"/>
        </g>
        <circle class="cls-1" cx="40.43" cy="6.25" r=".98"/>
        <g>
          <path class="cls-1" d="M196.31,7.22c-.24,0-.45-.09-.62-.23l-2.03,10.61c.1-.04.21-.06.32-.06.34,0,.64.18.82.45.06-.38.12-.79.2-1.24.13-.78.28-1.61.44-2.51.16-.9.33-1.79.5-2.68.26-1.4.56-2.9.87-4.47-.15.09-.32.14-.5.14Z"/>
          <path class="cls-1" d="M194.58,20.08c0-.19.02-.47.06-.83-.17.16-.4.25-.65.25s-.48-.1-.66-.26c0,.02-.01.05-.02.07-.09.36-.18.64-.27.85-.09.21-.21.38-.35.51-.14.13-.33.28-.55.45.25-.02.47-.04.68-.06.19-.02.37-.03.55-.04.18,0,.32-.01.41-.01.17,0,.35,0,.55.01.2,0,.38.02.55.04.21.02.41.04.6.06-.27-.19-.48-.36-.65-.51-.17-.15-.26-.33-.26-.54Z"/>
          <path class="cls-1" d="M217.39,20.35c-.17-.24-.31-.49-.43-.75-.11-.27-.21-.55-.28-.85-.08-.3-.14-.65-.2-1.05l-1.7-13.81c-.02-.11-.03-.23-.03-.34-.02-.09-.03-.2-.03-.33v-.41c0-.26.02-.47.06-.61.04-.14.11-.27.21-.38.1-.11.25-.22.44-.33.19-.1.44-.26.77-.47-.3.02-.59.04-.85.06-.23.02-.46.03-.7.04-.24,0-.42.01-.55.01-.15,0-.32,0-.51-.01-.19,0-.38-.02-.57-.04-.21-.02-.43-.04-.65-.06.09.11.18.23.26.34.08.09.14.21.2.34.06.13.09.27.09.4,0,.17-.05.39-.14.67-.09.27-.2.54-.31.81-.13.3-.28.62-.45.94l-6.56,13.52-6.56-14.18c-.23-.49-.41-.95-.54-1.38-.13-.43-.2-.91-.2-1.46-.17.02-.34.04-.51.06-.15.02-.3.03-.45.04-.15,0-.3.01-.45.01-.38,0-.74,0-1.09-.03-.35-.02-.66-.05-.92-.09.13.09.3.22.5.38.2.16.39.34.57.53.18.19.33.37.45.55.12.18.18.34.18.47v.37c-.04.19-.08.38-.11.57-.04.15-.07.31-.1.48s-.05.31-.07.43l-.1.53c.1-.03.19-.05.3-.05.32,0,.61.16.79.4.07-.34.14-.67.21-1.02l7.78,16.76,7.95-16.65c.36,2.67.69,5.08.99,7.22.13.91.26,1.81.38,2.7.12.89.23,1.69.33,2.4.09.71.17,1.3.23,1.76.06.46.09.72.09.78,0,.19-.03.37-.1.54-.07.17-.15.33-.24.48-.09.17-.21.33-.34.48.23-.02.45-.04.68-.06.19-.02.39-.03.61-.04.22,0,.41-.01.58-.01.19,0,.39,0,.6.01.21,0,.4.02.57.04.21.02.41.04.6.06-.25-.28-.45-.54-.63-.78Z"/>
        </g>
        <circle class="cls-1" cx="205.61" cy="6.25" r=".98"/>
        <path class="cls-1" d="M62.85,3.02c.65-.54,1.37-.97,2.16-1.28,1.03-.41,2.13-.61,3.31-.61,1.31,0,2.43.18,3.38.55.95.37,1.69.74,2.22,1.12.21.15.4.35.57.58.17.24.31.46.43.67.13.25.26.51.37.8.02-.25.05-.48.09-.71.02-.21.04-.42.06-.63.02-.21.03-.4.03-.57v-.62c-.09-.04-.24-.08-.43-.11-.19-.04-.43-.12-.71-.26-.28-.13-.64-.28-1.07-.45-.43-.17-.89-.32-1.41-.45-.51-.13-1.06-.25-1.63-.34-.58-.09-1.17-.14-1.78-.14-1.63,0-3.09.28-4.37.85-.59.26-1.13.57-1.64.91.23.15.4.4.43.7Z"/>
        <circle class="cls-1" cx="67.35" cy="6.29" r=".98"/>
        <circle class="cls-1" cx="87.09" cy="6.29" r=".98"/>
        <circle class="cls-1" cx="87.09" cy="11.16" r=".98"/>
        <circle class="cls-1" cx="121.95" cy="10.8" r=".98"/>
        <path class="cls-1" d="M130.49,7.65c-.31-1.05-.73-1.96-1.25-2.74-.52-.78-1.13-1.43-1.83-1.96-.7-.53-1.43-.95-2.2-1.26-.77-.31-1.55-.54-2.36-.68-.81-.14-1.58-.21-2.32-.21-.51,0-1.05.02-1.61.06-.56.04-1.09.08-1.59.11-.5.04-.96.08-1.36.11-.41.04-.71.06-.89.06-.27,0-.51,0-.72-.01-.22,0-.4-.02-.55-.04-.19-.02-.35-.04-.48-.06.44.34.7.67.8.98.09.31.14.77.14,1.38v14.66c0,.57-.02,1.02-.07,1.36-.05.34-.12.62-.23.82-.1.21-.24.37-.4.5-.16.12-.36.26-.58.41.21-.02.43-.04.65-.06.21-.02.44-.03.68-.04.25,0,.5-.01.77-.01.13,0,.38.02.74.06.36.04.8.08,1.31.13.51.05,1.08.09,1.7.13.63.04,1.27.06,1.93.06,1.67,0,3.14-.26,4.42-.77,1.28-.51,2.34-1.22,3.2-2.13.85-.91,1.5-1.98,1.93-3.21.44-1.23.65-2.57.65-4.01,0-1.36-.16-2.57-.47-3.62ZM129.25,12.04c0,.89-.06,1.69-.18,2.42.02,0,.04,0,.06,0,.54,0,.98.44.98.98s-.44.98-.98.98c-.2,0-.39-.06-.54-.16-.05.14-.11.27-.17.4-.56,1.16-1.26,2.05-2.12,2.67-.85.63-1.79,1.04-2.81,1.25-1.02.21-2,.31-2.93.31-.62,0-1.21-.02-1.76-.07-.55-.05-1.04-.11-1.48-.18-.49-.08-.95-.17-1.36-.28V1.81c.32-.09.87-.2,1.65-.33.78-.12,1.85-.18,3.21-.18,1.17,0,2.28.25,3.31.75,1.03.5,1.93,1.22,2.68,2.14.76.93,1.35,2.06,1.79,3.38.23.7.4,1.45.51,2.24,0,0,.01,0,.02,0,.54,0,.98.44.98.98,0,.5-.37.91-.86.97,0,.09,0,.18,0,.27Z"/>
        <path class="cls-1" d="M96.38,12.14c-.42,0-.77-.26-.91-.64,0,.17,0,.34,0,.51,0,1.53-.24,2.86-.71,3.99-.47,1.13-1.08,2.06-1.83,2.8-.75.74-1.58,1.29-2.5,1.66-.92.37-1.81.55-2.68.55-1.27,0-2.46-.28-3.58-.84-1.12-.56-2.09-1.31-2.91-2.26-.82-.95-1.47-2.05-1.95-3.31-.47-1.26-.71-2.6-.71-4.02,0-1.34.19-2.59.57-3.75.38-1.15.92-2.15,1.62-3,.7-.84,1.56-1.51,2.57-1.99,1.01-.48,2.16-.72,3.45-.72,1.21,0,2.34.29,3.39.87,1.05.58,1.96,1.36,2.74,2.36.78.99,1.39,2.15,1.85,3.47.34.99.55,2.02.64,3.1.11-.42.49-.74.95-.74.3,0,.56.14.74.35-.08-.94-.27-1.87-.55-2.81-.41-1.33-1.03-2.52-1.87-3.58-.84-1.06-1.92-1.92-3.22-2.59-1.31-.66-2.86-.99-4.66-.99-1.27,0-2.5.24-3.71.72-1.2.48-2.27,1.17-3.2,2.07-.93.9-1.67,1.98-2.23,3.25-.56,1.27-.84,2.68-.84,4.23,0,1.65.27,3.13.81,4.45.54,1.32,1.28,2.44,2.23,3.38.95.94,2.06,1.66,3.35,2.16,1.29.5,2.69.75,4.2.75,1.1,0,2.23-.24,3.38-.72,1.15-.48,2.2-1.16,3.14-2.02.94-.86,1.71-1.9,2.32-3.11.6-1.21.91-2.54.91-4.01-.18.25-.47.42-.8.42Z"/>
        <circle class="cls-1" cx="87.09" cy="15.7" r=".98"/>
        <circle class="cls-1" cx="74.13" cy="6.29" r=".98"/>
        <g>
          <path class="cls-1" d="M99.91,9.79c.62.51,1.31,1,2.05,1.48.13.08.25.17.38.25-.05-.11-.07-.24-.07-.37,0-.54.44-.98.98-.98.07,0,.14,0,.21.02-.1-.07-.19-.14-.29-.21-.75-.53-1.43-1.07-2.06-1.61-.63-.54-1.15-1.11-1.58-1.7-.43-.6-.64-1.25-.64-1.97,0-.45.08-.89.24-1.29.16-.41.39-.77.7-1.09.3-.32.66-.58,1.08-.77.42-.19.88-.28,1.39-.28.66,0,1.34.15,2.05.45.7.3,1.24.76,1.62,1.36.06.11.12.25.18.41.07.16.13.32.18.47.08.17.14.34.2.51v-.51c0-.15,0-.3.01-.45,0-.15.01-.29.01-.43v-.38c0-.14,0-.27.03-.38.02-.13.04-.27.06-.43-.15-.04-.27-.08-.35-.11-.09-.04-.18-.08-.27-.11-.64-.27-1.23-.47-1.75-.61-.52-.14-1.13-.21-1.83-.21s-1.37.14-1.96.41c-.59.27-1.08.64-1.49,1.09-.41.45-.72.98-.94,1.59-.22.61-.33,1.24-.33,1.9,0,.85.21,1.6.63,2.23.42.63.94,1.21,1.56,1.72Z"/>
          <path class="cls-1" d="M106.79,13.54c-.43-.68-.95-1.31-1.58-1.89-.35-.33-.73-.65-1.12-.96.07.14.12.29.12.46,0,.54-.44.98-.98.98-.02,0-.04,0-.07,0,.28.22.56.44.83.68.63.55,1.15,1.16,1.56,1.83.42.67.63,1.47.63,2.4,0,.57-.13,1.08-.4,1.53-.27.45-.59.84-.98,1.15-.39.31-.81.55-1.28.72-.46.17-.89.26-1.29.26-.57,0-1.17-.08-1.82-.24-.64-.16-1.2-.43-1.68-.81-.28-.23-.52-.47-.7-.72-.18-.26-.33-.5-.44-.72-.13-.27-.23-.53-.28-.8.02.28.04.57.06.85.02.25.04.51.06.78.02.27.05.52.09.72.06.32.1.54.14.64.04.1.1.2.2.3.08-.06.15-.09.23-.09.13,0,.34.03.63.1.28.07.62.14.99.21.38.08.78.15,1.21.21.43.07.85.1,1.26.1.74,0,1.43-.15,2.07-.45.64-.3,1.2-.71,1.68-1.22s.84-1.09,1.11-1.75c.27-.65.4-1.32.4-2,0-.83-.21-1.59-.64-2.27Z"/>
        </g>
        <circle class="cls-1" cx="103.24" cy="19.59" r=".98"/>
        <circle class="cls-1" cx="106.44" cy="4.23" r=".98"/>
        <circle class="cls-1" cx="67.35" cy="14.21" r=".98"/>
        <path class="cls-1" d="M75.62,13.15c-.19.02-.39.03-.6.04-.12,0-.24,0-.34.01-.9.04-2.21.04-3.72-.14-.13,0-.15.2-.03.24,1.98.57,2.64,2.19,2.64,2.19v.05s0,4.61,0,4.61c-.32.11-.68.23-1.07.34-.39.11-.79.21-1.19.28-.41.08-.82.14-1.24.18-.42.05-.8.07-1.14.07-1.57,0-2.94-.34-4.09-1.01-1.16-.67-2.11-1.52-2.87-2.56-.76-1.03-1.32-2.18-1.69-3.44-.37-1.26-.55-2.49-.55-3.68,0-1.46.23-2.76.68-3.91.35-.88.8-1.65,1.34-2.32-.36-.04-.66-.28-.79-.6-.07.07-.15.13-.21.21-.91.97-1.61,2.1-2.09,3.39-.48,1.3-.72,2.67-.72,4.1,0,.57.06,1.22.18,1.95.12.73.34,1.48.65,2.24.31.77.73,1.52,1.26,2.26.53.74,1.21,1.4,2.03,1.97.82.58,1.81,1.05,2.97,1.41,1.15.36,2.5.54,4.03.54.8,0,1.47-.03,2.03-.09.56-.06,1.05-.12,1.46-.2.42-.08.77-.14,1.05-.2.28-.06.54-.09.77-.09h.88v-6.16c0-.32.05-.59.14-.8.09-.21.21-.39.34-.54.15-.17.32-.31.51-.43-.23.02-.45.04-.65.06ZM74.13,15.18c-.54,0-.98-.44-.98-.98s.44-.98.98-.98.98.44.98.98-.44.98-.98.98Z"/>
        <g>
          <path class="cls-1" d="M54.31,1.8c.15.31.23.83.23,1.55v2.35c.16-.31.49-.52.86-.52s.68.2.85.5v-2.32c0-.72.08-1.25.24-1.59.16-.34.39-.59.7-.74-.23.02-.45.04-.65.06-.19.02-.38.03-.58.04-.2,0-.38.01-.55.01s-.36,0-.57-.01c-.21,0-.41-.02-.6-.04-.21-.02-.42-.04-.62-.06.32.21.56.47.71.78Z"/>
          <path class="cls-1" d="M56.59,20.26c-.23-.33-.34-.89-.34-1.66V6.64c-.17.29-.48.5-.85.5s-.69-.21-.86-.52v11.99c0,.4-.03.73-.09.99-.06.27-.14.49-.26.68-.11.19-.25.35-.41.48-.16.13-.34.26-.53.37.25-.02.49-.04.74-.06.21-.02.44-.03.7-.04.26,0,.49-.01.7-.01s.44,0,.7.01c.26,0,.49.02.7.04.25.02.49.04.74.06-.4-.25-.71-.53-.94-.87Z"/>
        </g>
      </g>
    </g>
  </g>
</svg>