<?xml version="1.0" encoding="UTF-8"?>
<svg xmlns="http://www.w3.org/2000/svg" version="1.1" viewBox="0 0 547.89 49.66">
  <defs>
    <style>
      .cls-1 {
        fill: #e1c149;
        stroke: #fff6c2;
        stroke-miterlimit: 10;
        stroke-width: .25px;
      }
    </style>
  </defs>
  <!-- Generator: Adobe Illustrator 28.6.0, SVG Export Plug-In . SVG Version: 1.2.0 Build 709)  -->
  <g>
    <g id="Capa_1">
      <g>
        <g>
          <path class="cls-1" d="M300.43,3.72c.28.36.49.76.64,1.18.15.43.24.92.29,1.47.04.56.06,1.22.06,1.99v14.83c.42-.65,1.15-1.08,1.98-1.08.76,0,1.44.37,1.87.93V4.65h7.04c1.11,0,2.03.01,2.75.03.73.02,1.32.09,1.79.22s.85.31,1.15.56c.3.25.62.58.96.99-.04-.38-.12-.8-.22-1.25-.11-.45-.27-.87-.48-1.28-.21-.41-.48-.74-.8-.99-.32-.26-.72-.38-1.18-.38-.38,0-1.18.02-2.37.06-1.2.04-2.5.09-3.91.13-1.41.04-2.74.09-4,.13-1.26.04-2.15.06-2.66.06-.38,0-.81-.01-1.28-.03-.47-.02-.92-.05-1.35-.1-.47-.04-.94-.08-1.41-.13.47.34.84.69,1.12,1.06Z"/>
          <path class="cls-1" d="M319.1,23.35c0-.34.02-.66.06-.96,0-.34.02-.7.06-1.09-.21.43-.51.81-.9,1.15-.34.3-.8.56-1.38.77-.58.21-1.29.32-2.15.32h-9.24c.12.28.19.6.19.93,0,.31-.06.6-.17.87h9.29c.85,0,1.57.11,2.15.32.58.21,1.03.45,1.38.7.38.3.68.64.9,1.02-.04-.34-.09-.7-.13-1.09-.04-.34-.06-.68-.06-1.02v-1.92Z"/>
          <path class="cls-1" d="M322.56,45.28c-.64.32-1.34.57-2.11.74-.77.17-1.57.28-2.4.32-.83.04-1.65.06-2.47.06h-3.01c-1.15,0-2.28-.02-3.39-.06-1.28-.04-2.58-.08-3.91-.13v-20.32c-.43.56-1.1.93-1.87.93-.83,0-1.56-.43-1.98-1.08v16.12c0,.94-.05,1.73-.16,2.37-.11.64-.27,1.18-.48,1.63-.21.45-.51.84-.9,1.18-.38.34-.83.66-1.34.96.68-.04,1.34-.09,1.99-.13.55-.04,1.1-.07,1.63-.1.53-.02.93-.03,1.18-.03.47,0,1.4.02,2.79.06,1.39.04,2.96.1,4.71.16,1.75.06,3.55.12,5.41.16,1.86.04,3.53.06,5.03.06.47,0,.87-.14,1.22-.42.34-.28.62-.63.83-1.06.21-.43.38-.89.51-1.38.13-.49.23-.95.32-1.38-.43.56-.96.99-1.6,1.31Z"/>
        </g>
        <circle class="cls-1" cx="313.9" cy="34.83" r="2.35"/>
        <g>
          <path class="cls-1" d="M326.59,4.62c.3.88.45,2.12.45,3.75v9.22c.42-.63,1.14-1.05,1.96-1.05.77,0,1.45.38,1.88.96v-9.13c0-1.62.16-2.89.48-3.81.32-.92.86-1.55,1.63-1.89-.56.04-1.07.09-1.54.13-.43.04-.88.08-1.34.1-.47.02-.9.03-1.28.03s-.8-.01-1.25-.03c-.45-.02-.89-.05-1.31-.1-.47-.04-.96-.08-1.47-.13.9.43,1.49,1.08,1.79,1.95Z"/>
          <path class="cls-1" d="M329,28.58c-.82,0-1.54-.42-1.96-1.05v5.01c.42-.63,1.14-1.05,1.96-1.05.77,0,1.45.38,1.88.96v-4.82c-.43.58-1.11.96-1.88.96Z"/>
          <path class="cls-1" d="M329,21.25c-.82,0-1.54-.42-1.96-1.05v4.73c.42-.63,1.14-1.05,1.96-1.05.77,0,1.45.38,1.88.96v-4.54c-.43.58-1.11.96-1.88.96Z"/>
          <path class="cls-1" d="M349.45,44.39c-.26.23-.56.46-.9.67-.6.34-1.31.6-2.15.77-.83.17-1.71.3-2.63.38-.92.09-1.82.14-2.72.16-.9.02-1.69.03-2.37.03-.85,0-1.74-.01-2.66-.03-.92-.02-1.76-.07-2.53-.16-.9-.08-1.77-.17-2.63-.26v-10.71c-.43.58-1.11.96-1.88.96-.82,0-1.54-.42-1.96-1.05v7.8c0,1.32-.27,2.35-.8,3.07-.53.73-1.23,1.39-2.08,1.98.68-.04,1.34-.09,1.99-.13.55-.04,1.1-.07,1.63-.1.53-.02.93-.03,1.18-.03,1.41,0,2.89.03,4.45.1,1.56.06,3.13.13,4.71.19,1.58.06,3.11.12,4.58.16,1.47.04,2.85.06,4.13.06.64,0,1.1-.15,1.38-.45.28-.3.59-.75.93-1.34.17-.38.34-.76.51-1.12.17-.36.3-.69.38-.99l.32-.96c-.34.43-.64.76-.9.99Z"/>
        </g>
        <g>
          <path class="cls-1" d="M412.72,4.62c.3.88.45,2.12.45,3.75v9.34c.41-.69,1.16-1.16,2.02-1.16.74,0,1.39.35,1.82.88v-9.06c0-1.62.16-2.89.48-3.81.32-.92.86-1.55,1.63-1.89-.56.04-1.07.09-1.54.13-.43.04-.88.08-1.34.1-.47.02-.9.03-1.28.03s-.8-.01-1.25-.03c-.45-.02-.89-.05-1.31-.1-.47-.04-.96-.08-1.47-.13.9.43,1.49,1.08,1.79,1.95Z"/>
          <path class="cls-1" d="M415.18,28.58c-.86,0-1.61-.47-2.02-1.16v5.23c.41-.69,1.16-1.16,2.02-1.16.74,0,1.39.35,1.82.88v-4.67c-.43.53-1.08.88-1.82.88Z"/>
          <path class="cls-1" d="M435.58,44.39c-.26.23-.56.46-.9.67-.6.34-1.31.6-2.15.77-.83.17-1.71.3-2.63.38-.92.09-1.83.14-2.72.16-.9.02-1.69.03-2.37.03-.85,0-1.74-.01-2.66-.03-.92-.02-1.76-.07-2.53-.16-.9-.08-1.77-.17-2.63-.26v-10.64c-.43.53-1.08.88-1.82.88-.86,0-1.61-.47-2.02-1.16v7.91c0,1.32-.27,2.35-.8,3.07-.53.73-1.23,1.39-2.08,1.98.68-.04,1.34-.09,1.99-.13.55-.04,1.1-.07,1.63-.1.53-.02.93-.03,1.18-.03,1.41,0,2.89.03,4.45.1,1.56.06,3.13.13,4.71.19,1.58.06,3.11.12,4.58.16,1.47.04,2.85.06,4.13.06.64,0,1.1-.15,1.38-.45.28-.3.59-.75.93-1.34.17-.38.34-.76.51-1.12.17-.36.3-.69.38-.99l.32-.96c-.34.43-.64.76-.9.99Z"/>
          <path class="cls-1" d="M415.18,21.25c-.86,0-1.61-.47-2.02-1.16v4.95c.41-.69,1.16-1.16,2.02-1.16.74,0,1.39.35,1.82.88v-4.4c-.43.53-1.08.88-1.82.88Z"/>
        </g>
        <path class="cls-1" d="M63.09,46.85c-.56-.38-1.06-.79-1.5-1.22-.45-.43-.85-.91-1.22-1.44-.36-.53-.72-1.16-1.06-1.89L39.79,1.32l-5.23,10.87c.07,0,.14-.02.21-.02.88,0,1.63.52,1.98,1.26l2.45-5.06,7.61,16.52c-.63-.26-1.31-.49-2.05-.66-4.42-1.01-9.43.16-14.91,3.49l5.42-11.2c-.16.04-.32.06-.49.06-.77,0-1.45-.4-1.84-1l-6.93,14.41c-3.73,1.84-7.29,2.34-10.6,1.48,0,0-.32-.08-.85-.27-.53-.18-1.04-.38-1.53-.62-2.2-.99-5.62-2.95-9-6.61.05.09.42.79,1.11,1.77l-.06.03c.13.3,3.21,7.35,10.38,9.97,2.32.85,4.78,1.13,7.38.84l-2.75,5.72c-.34.77-.69,1.42-1.06,1.95-.36.53-.75,1.01-1.15,1.44-.41.43-.86.82-1.38,1.18-.51.36-1.09.74-1.73,1.12.47-.04.96-.09,1.47-.13.47-.04.97-.07,1.51-.1.53-.02,1.06-.03,1.57-.03.43,0,.89.01,1.38.03.49.02.97.05,1.44.1.51.04,1.05.09,1.6.13-.34-.34-.62-.66-.83-.96-.21-.26-.41-.53-.58-.83-.17-.3-.26-.58-.26-.83,0-.47.07-.99.22-1.57.15-.58.33-1.1.54-1.57l3.01-6.22c1.69-.45,3.44-1.12,5.22-2.02,10.46-5.25,16.58-2.97,19.74-.44l.14.3h-.07l.85,1.86h.05l2.95,6.53c.34.81.55,1.45.64,1.92.09.47.13.98.13,1.54,0,.34-.08.65-.22.93-.15.28-.31.52-.48.74-.17.26-.38.47-.64.64.55-.04,1.11-.09,1.66-.13.47-.04.98-.07,1.54-.1.55-.02,1.07-.03,1.54-.03.68,0,1.39.01,2.11.03.73.02,1.39.05,1.99.1.73.04,1.43.09,2.11.13-.77-.38-1.43-.77-1.99-1.15ZM30.34,32.58c-5.29,2.66-10.12,3.23-14.35,1.69-1.81-.66-3.33-1.65-4.6-2.74,1.08.61,2.27,1.12,3.58,1.46,1.19.31,2.41.47,3.65.47,3.5,0,7.18-1.25,10.97-3.72,5.52-3.61,10.49-4.95,14.77-3.98,1.38.31,2.54.85,3.5,1.44l1.74,3.78c-3.88-2.06-10.08-3.02-19.27,1.6Z"/>
        <path class="cls-1" d="M541.55,46.85c-.56-.38-1.06-.79-1.5-1.22-.45-.43-.85-.91-1.22-1.44-.36-.53-.72-1.16-1.06-1.89l-19.53-40.98-5.23,10.87c.06,0,.12-.02.19-.02.72,0,1.36.35,1.76.89l2.45-5.21,11.97,26h-24.21l8.13-17.28s-.07.01-.11.01c-.76,0-1.43-.39-1.83-.98l-12.85,26.7c-.34.77-.69,1.42-1.06,1.95-.36.53-.75,1.01-1.15,1.44-.41.43-.86.82-1.38,1.18-.51.36-1.09.74-1.73,1.12.47-.04.96-.09,1.47-.13.47-.04.97-.07,1.51-.1.53-.02,1.06-.03,1.57-.03.43,0,.89.01,1.38.03.49.02.97.05,1.44.1.51.04,1.05.09,1.6.13-.34-.34-.62-.66-.83-.96-.21-.26-.41-.53-.58-.83-.17-.3-.26-.58-.26-.83,0-.47.07-.99.22-1.57.15-.58.33-1.1.54-1.57l3.07-6.53h25.87l2.95,6.53c.34.81.55,1.45.64,1.92.09.47.13.98.13,1.54,0,.34-.08.65-.22.93-.15.28-.31.52-.48.74-.17.26-.38.47-.64.64.55-.04,1.11-.09,1.66-.13.47-.04.98-.07,1.54-.1.55-.02,1.07-.03,1.54-.03.68,0,1.39.01,2.11.03.73.02,1.39.05,1.99.1.73.04,1.43.09,2.11.13-.77-.38-1.43-.77-1.99-1.15Z"/>
        <path class="cls-1" d="M409.32,46.81c-.56-.38-1.06-.79-1.5-1.22-.45-.43-.85-.91-1.22-1.44-.36-.53-.72-1.16-1.06-1.89L386.01,1.28l-5.23,10.87c.06,0,.12-.02.19-.02.72,0,1.36.35,1.76.89l2.45-5.21,11.97,26h-24.21l8.13-17.28s-.07.01-.11.01c-.76,0-1.43-.39-1.83-.98l-12.85,26.7c-.34.77-.69,1.42-1.06,1.95-.36.53-.75,1.01-1.15,1.44-.41.43-.86.82-1.38,1.18-.51.36-1.09.74-1.73,1.12.47-.04.96-.09,1.47-.13.47-.04.97-.07,1.51-.1.53-.02,1.06-.03,1.57-.03.43,0,.89.01,1.38.03.49.02.97.05,1.44.1.51.04,1.05.09,1.6.13-.34-.34-.62-.66-.83-.96-.21-.26-.41-.53-.58-.83-.17-.3-.26-.58-.26-.83,0-.47.07-.99.22-1.57.15-.58.33-1.1.54-1.57l3.07-6.53h25.87l2.95,6.53c.34.81.55,1.45.64,1.92.09.47.13.98.13,1.54,0,.34-.08.65-.22.93-.15.28-.31.52-.48.74-.17.26-.38.47-.64.64.55-.04,1.11-.09,1.66-.13.47-.04.98-.07,1.54-.1.55-.02,1.07-.03,1.54-.03.68,0,1.39.01,2.11.03.73.02,1.39.05,1.99.1.73.04,1.43.09,2.11.13-.77-.38-1.43-.77-1.99-1.15Z"/>
        <g>
          <path class="cls-1" d="M68.66,45.63c0-.43.05-1.06.14-1.88-.39.35-.9.57-1.47.57s-1.09-.22-1.48-.58c-.01.05-.02.11-.04.16-.19.81-.4,1.45-.61,1.92-.21.47-.48.85-.8,1.15-.32.3-.74.64-1.25,1.02.55-.04,1.07-.09,1.54-.13.43-.04.84-.07,1.25-.1.4-.02.71-.03.93-.03.38,0,.8.01,1.25.03.45.02.86.05,1.25.1.47.04.92.09,1.35.13-.6-.43-1.09-.81-1.47-1.15-.38-.34-.58-.75-.58-1.22Z"/>
          <path class="cls-1" d="M72.57,16.66c-.53,0-1.02-.2-1.4-.51l-4.57,23.91c.23-.08.47-.13.73-.13.77,0,1.45.4,1.85,1.01.13-.86.28-1.78.45-2.79.3-1.75.63-3.64.99-5.67.36-2.03.74-4.04,1.12-6.05.6-3.16,1.26-6.53,1.97-10.09-.33.2-.72.32-1.13.32Z"/>
          <path class="cls-1" d="M120.08,46.24c-.38-.53-.7-1.1-.96-1.7-.26-.6-.47-1.24-.64-1.92-.17-.68-.32-1.47-.45-2.37l-3.84-31.12c-.04-.26-.06-.51-.06-.77-.04-.21-.06-.46-.06-.74v-.93c0-.6.04-1.06.13-1.38.09-.32.25-.61.48-.86.23-.26.57-.5.99-.74.43-.23,1-.59,1.73-1.06-.68.04-1.32.09-1.92.13-.51.04-1.04.08-1.57.1-.53.02-.95.03-1.25.03-.34,0-.73-.01-1.15-.03-.43-.02-.85-.05-1.28-.1-.47-.04-.96-.08-1.47-.13.21.26.4.51.58.77.17.21.32.47.45.77.13.3.19.6.19.9,0,.38-.11.89-.32,1.51-.21.62-.45,1.23-.7,1.82-.3.68-.64,1.39-1.02,2.11l-14.79,30.48-14.79-31.95c-.51-1.11-.92-2.15-1.22-3.11-.3-.96-.45-2.06-.45-3.3-.38.04-.77.09-1.15.13-.34.04-.68.08-1.02.1-.34.02-.68.03-1.02.03-.85,0-1.68-.02-2.47-.06-.79-.04-1.48-.11-2.08-.19.3.21.67.5,1.12.86.45.36.87.76,1.28,1.18.4.43.75.84,1.02,1.25.28.41.42.76.42,1.06v.83c-.09.43-.17.85-.26,1.28-.09.34-.16.7-.22,1.09s-.12.7-.16.96l-.23,1.19c.21-.07.44-.12.68-.12.73,0,1.37.36,1.77.91.15-.76.31-1.52.47-2.3l17.55,37.78,17.93-37.52c.81,6.02,1.56,11.44,2.24,16.26.3,2.05.59,4.08.86,6.08.28,2.01.52,3.81.74,5.41.21,1.6.38,2.92.51,3.97.13,1.05.19,1.63.19,1.76,0,.43-.07.83-.22,1.22-.15.38-.33.75-.54,1.09-.21.38-.47.75-.77,1.09.51-.04,1.02-.09,1.54-.13.43-.04.89-.07,1.38-.1.49-.02.93-.03,1.31-.03.43,0,.87.01,1.34.03.47.02.9.05,1.28.1.47.04.92.09,1.34.13-.56-.64-1.02-1.23-1.41-1.76Z"/>
        </g>
        <circle class="cls-1" cx="93.52" cy="14.46" r="2.2"/>
        <g>
          <path class="cls-1" d="M444.92,16.66c-.53,0-1.02-.2-1.4-.51l-4.57,23.91c.23-.08.47-.13.73-.13.77,0,1.45.4,1.85,1.01.13-.86.28-1.78.45-2.79.3-1.75.63-3.64.99-5.67.36-2.03.74-4.04,1.12-6.05.6-3.16,1.26-6.53,1.97-10.09-.33.2-.72.32-1.13.32Z"/>
          <path class="cls-1" d="M441.01,45.63c0-.43.05-1.06.14-1.88-.39.35-.9.57-1.47.57s-1.09-.22-1.48-.58c-.01.05-.02.11-.04.16-.19.81-.4,1.45-.61,1.92-.21.47-.48.85-.8,1.15-.32.3-.74.64-1.25,1.02.55-.04,1.07-.09,1.54-.13.43-.04.84-.07,1.25-.1.4-.02.71-.03.93-.03.38,0,.8.01,1.25.03.45.02.86.05,1.25.1.47.04.92.09,1.35.13-.6-.43-1.09-.81-1.47-1.15-.38-.34-.58-.75-.58-1.22Z"/>
          <path class="cls-1" d="M492.43,46.24c-.38-.53-.7-1.1-.96-1.7-.26-.6-.47-1.24-.64-1.92-.17-.68-.32-1.47-.45-2.37l-3.84-31.12c-.04-.26-.06-.51-.06-.77-.04-.21-.06-.46-.06-.74v-.93c0-.6.04-1.06.13-1.38.09-.32.25-.61.48-.86.23-.26.57-.5.99-.74.43-.23,1-.59,1.73-1.06-.68.04-1.32.09-1.92.13-.51.04-1.04.08-1.57.1-.53.02-.95.03-1.25.03-.34,0-.73-.01-1.15-.03-.43-.02-.85-.05-1.28-.1-.47-.04-.96-.08-1.47-.13.21.26.41.51.58.77.17.21.32.47.45.77.13.3.19.6.19.9,0,.38-.11.89-.32,1.51-.21.62-.45,1.23-.7,1.82-.3.68-.64,1.39-1.02,2.11l-14.79,30.48-14.79-31.95c-.51-1.11-.92-2.15-1.22-3.11-.3-.96-.45-2.06-.45-3.3-.38.04-.77.09-1.15.13-.34.04-.68.08-1.02.1-.34.02-.68.03-1.02.03-.85,0-1.68-.02-2.47-.06-.79-.04-1.48-.11-2.08-.19.3.21.67.5,1.12.86.45.36.87.76,1.28,1.18.4.43.75.84,1.02,1.25.28.41.42.76.42,1.06v.83c-.09.43-.17.85-.26,1.28-.09.34-.16.7-.22,1.09-.06.38-.12.7-.16.96l-.23,1.19c.21-.07.44-.12.68-.12.73,0,1.37.36,1.77.91.15-.76.31-1.52.47-2.3l17.55,37.78,17.93-37.52c.81,6.02,1.56,11.44,2.24,16.26.3,2.05.59,4.08.86,6.08.28,2.01.52,3.81.74,5.41.21,1.6.38,2.92.51,3.97.13,1.05.19,1.63.19,1.76,0,.43-.07.83-.22,1.22-.15.38-.33.75-.54,1.09-.21.38-.47.75-.77,1.09.51-.04,1.02-.09,1.54-.13.43-.04.89-.07,1.38-.1.49-.02.93-.03,1.31-.03.43,0,.87.01,1.34.03.47.02.9.05,1.28.1.47.04.92.09,1.34.13-.56-.64-1.02-1.23-1.41-1.76Z"/>
        </g>
        <circle class="cls-1" cx="465.86" cy="14.46" r="2.2"/>
        <path class="cls-1" d="M144.06,7.18c1.46-1.21,3.08-2.18,4.87-2.88,2.33-.92,4.81-1.38,7.46-1.38,2.95,0,5.49.42,7.62,1.25,2.13.83,3.8,1.68,4.99,2.53.47.34.9.78,1.28,1.31.38.53.7,1.04.96,1.5.3.56.58,1.15.83,1.79.04-.55.11-1.09.19-1.6.04-.47.08-.94.13-1.41.04-.47.06-.9.06-1.28v-1.41c-.21-.09-.53-.17-.96-.26-.43-.09-.96-.28-1.6-.58-.64-.3-1.44-.64-2.4-1.02-.96-.38-2.02-.73-3.17-1.02-1.15-.3-2.38-.55-3.68-.77-1.3-.21-2.64-.32-4-.32-3.67,0-6.96.64-9.86,1.92-1.33.59-2.56,1.28-3.71,2.05.53.34.89.91.98,1.57Z"/>
        <circle class="cls-1" cx="154.21" cy="14.55" r="2.2"/>
        <circle class="cls-1" cx="198.71" cy="14.55" r="2.2"/>
        <circle class="cls-1" cx="198.71" cy="25.53" r="2.2"/>
        <circle class="cls-1" cx="277.28" cy="24.72" r="2.2"/>
        <path class="cls-1" d="M296.53,17.62c-.7-2.37-1.64-4.43-2.82-6.18-1.17-1.75-2.55-3.22-4.13-4.42-1.58-1.19-3.23-2.15-4.96-2.85-1.73-.7-3.5-1.22-5.32-1.54-1.81-.32-3.55-.48-5.22-.48-1.15,0-2.36.04-3.62.13-1.26.09-2.45.17-3.59.26s-2.16.17-3.07.26c-.92.09-1.59.13-2.02.13-.6,0-1.14-.01-1.63-.03-.49-.02-.91-.05-1.25-.1-.43-.04-.79-.08-1.09-.13.98.77,1.58,1.5,1.79,2.21.21.7.32,1.74.32,3.11v33.04c0,1.28-.05,2.31-.16,3.07-.11.77-.28,1.39-.51,1.86-.24.47-.53.84-.9,1.12-.36.28-.8.59-1.31.93.47-.04.96-.09,1.47-.13.47-.04.98-.07,1.54-.1.55-.02,1.13-.03,1.73-.03.3,0,.85.04,1.66.13.81.09,1.79.18,2.95.29,1.15.11,2.43.2,3.84.29,1.41.08,2.86.13,4.35.13,3.76,0,7.08-.58,9.96-1.73,2.88-1.15,5.28-2.75,7.2-4.8,1.92-2.05,3.37-4.46,4.35-7.24.98-2.77,1.47-5.78,1.47-9.03,0-3.07-.35-5.79-1.06-8.16ZM293.74,27.51c0,2.01-.14,3.82-.41,5.46.04,0,.09-.01.13-.01,1.22,0,2.2.99,2.2,2.2s-.99,2.2-2.2,2.2c-.45,0-.87-.14-1.22-.37-.12.31-.25.61-.39.89-1.26,2.6-2.85,4.61-4.77,6.02-1.92,1.41-4.03,2.35-6.34,2.82-2.31.47-4.5.7-6.6.7-1.41,0-2.73-.05-3.97-.16-1.24-.11-2.35-.24-3.33-.42-1.11-.17-2.14-.38-3.07-.64V4.46c.73-.21,1.96-.46,3.71-.74,1.75-.28,4.16-.42,7.24-.42,2.65,0,5.13.57,7.46,1.7,2.33,1.13,4.34,2.74,6.05,4.83,1.71,2.09,3.05,4.63,4.03,7.62.52,1.58.9,3.27,1.14,5.06.02,0,.03,0,.05,0,1.22,0,2.2.99,2.2,2.2,0,1.12-.84,2.04-1.93,2.18,0,.21.01.41.01.62Z"/>
        <path class="cls-1" d="M219.64,27.73c-.94,0-1.74-.6-2.06-1.43.01.38.02.76.02,1.15,0,3.46-.53,6.46-1.6,9-1.07,2.54-2.44,4.64-4.13,6.31-1.69,1.67-3.56,2.91-5.64,3.75-2.07.83-4.09,1.25-6.05,1.25-2.86,0-5.55-.63-8.07-1.89-2.52-1.26-4.71-2.96-6.56-5.09-1.86-2.13-3.32-4.62-4.39-7.46-1.07-2.84-1.6-5.86-1.6-9.06,0-3.03.43-5.85,1.28-8.45.85-2.6,2.07-4.86,3.65-6.76,1.58-1.9,3.51-3.39,5.8-4.48,2.28-1.09,4.88-1.63,7.78-1.63,2.73,0,5.28.65,7.65,1.95,2.37,1.3,4.43,3.07,6.18,5.32,1.75,2.24,3.14,4.85,4.16,7.81.77,2.23,1.25,4.56,1.44,6.99.24-.96,1.1-1.67,2.13-1.67.67,0,1.27.31,1.68.79-.19-2.11-.6-4.22-1.25-6.33-.92-2.99-2.33-5.68-4.23-8.07-1.9-2.39-4.32-4.33-7.27-5.83-2.95-1.49-6.45-2.24-10.5-2.24-2.86,0-5.65.54-8.36,1.63-2.71,1.09-5.11,2.65-7.2,4.67-2.09,2.03-3.77,4.47-5.03,7.33-1.26,2.86-1.89,6.04-1.89,9.54,0,3.71.61,7.05,1.82,10.02,1.22,2.97,2.89,5.51,5.03,7.62,2.13,2.11,4.65,3.74,7.56,4.87,2.9,1.13,6.06,1.7,9.48,1.7,2.48,0,5.02-.54,7.62-1.63,2.6-1.09,4.96-2.6,7.08-4.55,2.11-1.94,3.85-4.28,5.22-7.01,1.36-2.72,2.04-5.74,2.05-9.05-.4.57-1.06.94-1.81.94Z"/>
        <circle class="cls-1" cx="198.71" cy="35.77" r="2.2"/>
        <circle class="cls-1" cx="169.5" cy="14.55" r="2.2"/>
        <g>
          <path class="cls-1" d="M227.6,22.45c1.41,1.15,2.95,2.26,4.61,3.33.29.19.57.38.86.57-.1-.26-.16-.53-.16-.83,0-1.22.99-2.2,2.2-2.2.16,0,.32.02.48.05-.22-.16-.43-.32-.65-.48-1.69-1.2-3.23-2.4-4.64-3.62-1.41-1.22-2.59-2.5-3.55-3.84-.96-1.34-1.44-2.83-1.44-4.45,0-1.02.18-2,.54-2.91.36-.92.89-1.74,1.57-2.46.68-.73,1.49-1.3,2.43-1.73.94-.43,1.99-.64,3.14-.64,1.49,0,3.03.34,4.61,1.02,1.58.68,2.8,1.71,3.65,3.07.13.26.27.57.42.93.15.36.29.72.42,1.06.17.38.32.77.45,1.15v-1.15c0-.34,0-.68.03-1.02.02-.34.03-.66.03-.96v-.86c0-.32.02-.61.06-.86.04-.3.09-.62.13-.96-.34-.08-.61-.17-.8-.26-.19-.08-.4-.17-.61-.26-1.45-.6-2.76-1.06-3.94-1.38-1.17-.32-2.55-.48-4.13-.48s-3.1.31-4.42.93c-1.32.62-2.44,1.44-3.36,2.47-.92,1.02-1.62,2.22-2.11,3.59-.49,1.37-.74,2.8-.74,4.29,0,1.92.47,3.6,1.41,5.03.94,1.43,2.11,2.72,3.52,3.87Z"/>
          <path class="cls-1" d="M243.13,30.91c-.96-1.54-2.15-2.96-3.55-4.26-.8-.74-1.65-1.46-2.54-2.16.17.31.27.66.27,1.04,0,1.22-.99,2.2-2.2,2.2-.05,0-.1-.01-.15-.02.64.49,1.27,1,1.86,1.52,1.41,1.24,2.58,2.61,3.52,4.13.94,1.52,1.41,3.32,1.41,5.41,0,1.28-.3,2.43-.9,3.46-.6,1.02-1.34,1.89-2.21,2.59-.88.7-1.84,1.25-2.88,1.63-1.05.38-2.02.58-2.91.58-1.28,0-2.65-.18-4.1-.54-1.45-.36-2.71-.97-3.78-1.82-.64-.51-1.16-1.06-1.57-1.63-.41-.58-.74-1.12-.99-1.63-.3-.6-.51-1.19-.64-1.79.04.64.08,1.28.13,1.92.04.56.09,1.14.13,1.76.04.62.11,1.16.19,1.63.13.73.23,1.21.32,1.44.08.23.23.46.45.67.17-.13.34-.19.51-.19.3,0,.77.07,1.41.22.64.15,1.39.31,2.24.48.85.17,1.76.33,2.72.48.96.15,1.91.22,2.85.22,1.66,0,3.22-.34,4.67-1.02,1.45-.68,2.71-1.6,3.78-2.75,1.07-1.15,1.9-2.47,2.5-3.94.6-1.47.9-2.98.9-4.51,0-1.88-.48-3.59-1.44-5.12Z"/>
        </g>
        <circle class="cls-1" cx="235.11" cy="44.53" r="2.2"/>
        <circle class="cls-1" cx="242.32" cy="9.91" r="2.2"/>
        <circle class="cls-1" cx="154.21" cy="32.4" r="2.2"/>
        <path class="cls-1" d="M172.85,30.01c-.43.04-.88.07-1.34.1-.27.01-.53.02-.77.03-2.03.09-4.98.1-8.39-.32-.3,0-.35.46-.06.54,4.46,1.27,5.95,4.93,5.95,4.93v.11s0,10.38,0,10.38c-.73.26-1.53.51-2.4.77-.88.26-1.77.47-2.69.64-.92.17-1.85.31-2.79.42-.94.11-1.79.16-2.56.16-3.54,0-6.62-.76-9.22-2.27-2.6-1.52-4.76-3.44-6.47-5.76-1.71-2.33-2.98-4.91-3.81-7.75-.83-2.84-1.25-5.6-1.25-8.29,0-3.29.51-6.22,1.54-8.8.79-1.98,1.8-3.72,3.03-5.23-.81-.1-1.48-.62-1.77-1.35-.16.16-.33.3-.48.46-2.05,2.18-3.62,4.73-4.71,7.65-1.09,2.92-1.63,6.01-1.63,9.25,0,1.28.14,2.74.42,4.39.28,1.64.77,3.33,1.47,5.06.7,1.73,1.65,3.43,2.85,5.09,1.19,1.66,2.72,3.15,4.58,4.45,1.86,1.3,4.09,2.36,6.69,3.17,2.6.81,5.64,1.22,9.09,1.22,1.79,0,3.32-.06,4.58-.19,1.26-.13,2.36-.28,3.3-.45.94-.17,1.73-.32,2.37-.45.64-.13,1.22-.19,1.73-.19h1.99v-13.9c0-.73.11-1.32.32-1.79.21-.47.47-.87.77-1.22.34-.38.73-.7,1.15-.96-.51.04-1,.09-1.47.13ZM169.5,34.6c-1.22,0-2.2-.99-2.2-2.2s.99-2.2,2.2-2.2,2.2.99,2.2,2.2-.99,2.2-2.2,2.2Z"/>
        <g>
          <path class="cls-1" d="M124.82,4.43c.34.7.51,1.87.51,3.49v5.3c.37-.69,1.09-1.17,1.94-1.17s1.53.45,1.91,1.12v-5.24c0-1.62.18-2.82.54-3.59.36-.77.89-1.32,1.57-1.66-.51.04-1,.09-1.47.13-.43.04-.86.08-1.31.1-.45.02-.86.03-1.25.03s-.81-.01-1.28-.03c-.47-.02-.92-.05-1.35-.1-.47-.04-.94-.08-1.41-.13.73.47,1.26,1.06,1.6,1.76Z"/>
          <path class="cls-1" d="M129.94,46.05c-.51-.75-.77-1.99-.77-3.75V15.33c-.38.66-1.09,1.12-1.91,1.12s-1.57-.48-1.94-1.17v27.03c0,.9-.06,1.64-.19,2.24-.13.6-.32,1.11-.58,1.54-.26.43-.57.79-.93,1.09-.36.3-.76.58-1.18.83.55-.04,1.11-.09,1.66-.13.47-.04.99-.07,1.57-.1.58-.02,1.1-.03,1.57-.03s.99.01,1.57.03c.58.02,1.1.05,1.57.1.55.04,1.11.09,1.66.13-.9-.55-1.6-1.21-2.11-1.95Z"/>
        </g>
      </g>
    </g>
  </g>
</svg>