<?xml version="1.0" encoding="UTF-8"?>
<svg xmlns="http://www.w3.org/2000/svg" version="1.1" viewBox="0 0 40.23 40.17">
  
  <g>
    <g id="Capa_1">
      <g>
        <path class="cls-2" d="M11.3,28.99c.08-.62.59-2.21.81-2.98.15-.53.11-.54-.13-.93-1.49-2.36-1.84-5.4-.92-8.1,1.26-3.7,4.64-6.24,8.53-6.45,4-.22,7.63,2.05,9.27,5.68,1.15,2.55,1.07,5.67-.21,8.15-.82,1.59-2.09,2.94-3.62,3.87-2.97,1.81-6.78,1.87-9.78.06-.45-.27-.46-.19-.97-.05-.33.09-.65.17-.98.25-.45.12-1.63.44-2,.51h0ZM8.54,31.73c1.46-.24,3.38-.86,4.86-1.26,1.53-.41,1.04-.33,2.31.21,3.56,1.52,7.81.98,10.94-1.16,2.92-2.18,4.77-5.14,4.95-8.87.2-4.09-1.71-7.87-5.11-10.16-6.46-4.34-15.25-1.03-17.42,6.32-.71,2.41-.61,5.5.48,7.81.08.18.16.34.25.52.42.81.36.57.04,1.74-.18.64-1.24,4.28-1.3,4.84h0ZM16.17,14.75c-.85.07-1.39.73-1.66,1.46-.5,1.34-.16,2.53.54,3.67.51.84.76,1.11,1.31,1.79,1.12,1.41,2.78,2.64,4.44,3.32.74.3,1.59.63,2.52.59,2.32-.11,2.92-2.27,2.56-2.73-.39-.49-1.91-1.13-2.6-1.29-.32-.08-.41-.08-.58.11-.18.2-.19.22-.33.46-.17.28-.43.7-.76.79-.5.12-1.81-.78-2.1-.99-.47-.34-1.06-.82-1.41-1.3-.25-.34-.57-.7-.79-1.16-.25-.53.26-.55.77-1.42.12-.21.14-.37.05-.63-.24-.7-.63-1.48-.94-2.17-.11-.25-.1-.35-.35-.44-.2-.07-.45-.08-.67-.07h0Z"/>
        <path class="cls-1" d="M.77,20.19c.09,10.68,8.82,19.38,19.54,19.26,10.56.04,19.65-9.49,19.04-20.11C38.89,9.23,30.52,1.01,20.35.85,9.87.7.93,9.03.77,20.19h0Z"/>
      </g>
    </g>
  </g>
</svg>